# xmcd
#
# Track frame offsets: 
#        150
#        26982
#        37390
#        50170
#        61677
#        76989
#        107623
#        135938
#        164339
#
# Disc length: 2796 seconds
#
# Revision: 0
# Processed by: cddbd v1.5.2PL0 Copyright (c) Steve Scherf et al.
# Submitted via: ExactAudioCopy v0.95a5
#
DISCID=760aea09
DTITLE=吴自英 - 吴自英古琴独奏专辑(1)
DYEAR=1900
DGENRE=Folk
TTITLE0=阳关三叠
TTITLE1=玉楼春晓
TTITLE2=酒狂
TTITLE3=秋风词
TTITLE4=洞庭秋思
TTITLE5=平沙落雁
TTITLE6=捣衣
TTITLE7=长门怨
TTITLE8=潇湘水云
EXTD=
EXTT0=
EXTT1=
EXTT2=
EXTT3=
EXTT4=
EXTT5=
EXTT6=
EXTT7=
EXTT8=
PLAYORDER=
